<svg class="icon" viewBox="0 0 1024 1024" version="1.1" xmlns="http://www.w3.org/2000/svg"
     xmlns:xlink="http://www.w3.org/1999/xlink" width="200" height="200">
  <path
    d="M483.133731 941.747784H175.949914A98.955057 98.955057 0 0 1 75.36169 844.574363V171.709666A98.955057 98.955057 0 0 1 175.949914 74.536245h660.170538a99.029292 99.029292 0 0 1 100.439754 97.247656v391.737313h74.234852V171.783901a173.709553 173.709553 0 0 0-175.045781-171.779447H175.652975A173.709553 173.709553 0 0 0 0.607194 171.783901v672.790462a173.561084 173.561084 0 0 0 175.045781 171.705212h307.183817v-74.234851z m0 0l525.434281-265.6123-534.490933-318.244809c-19.598001-11.654872-32.292161-2.895159-28.135009 19.523766l113.727793 615.703861c4.231387 22.270456 18.261774 25.536789 31.327108 6.829606a1862.032788 1862.032788 0 0 1 132.286506-167.770765l120.780104 179.945281a23.755153 23.755153 0 0 0 33.257213 6.309962l56.863897-39.418706a24.497501 24.497501 0 0 0 6.384197-33.776858L819.937254 765.588481a1573.333449 1573.333449 0 0 1 184.399372-58.422829c22.270456-5.493379 24.052092-19.449531 4.528326-31.030168z m0 0"></path>
</svg>
